# xmcd
#
# Track frame offsets:
#	150
#	13203
#	25823
#	37283
#	51533
#	66595
#	81574
#	93853
#	107870
#	122186
#	137098
#	150223
#	163814
#	176811
#	191451
#	205187
#	218743
#	232144
#	246573
#	260818
#	275063
#	288298
#	300573
#	312892
#	326149
#
# Disc length: 4476 seconds
#
# Revision: 2
# Processed by: cddbd v1.5.2PL0 Copyright (c) Steve Scherf et al.
# Submitted via: EasyCDDAExtractor 11.1.0.1
#
DISCID=8b117a19
DTITLE=Various Artist - A Richer Tradition - Disc 2
DYEAR=2007
DGENRE=Blues
TTITLE0=Whistler And His Jug Band - Jail House Blues (1924)
TTITLE1=Old Southern Jug Band - Blues, Just Blues, That's All (1924)
TTITLE2=Kansas City Blues Strummers - String Band Blues (1926)
TTITLE3=Old Pal Smoke Shop Four - Black Cat Blues (1926)
TTITLE4=Leecan And Cooksey - Dirty Guitar Blues (1926)
TTITLE5=Dixieland Jug Blowers - Boodle-Am-Shake (1926)
TTITLE6=Big Boy Cleveland - Quill Blues (1927)
TTITLE7=Whistler And His Jug Band - The Jug Band Special (1927)
TTITLE8=South Street Trio - Cold Morning Shout (1927)
TTITLE9=The Johnson Boys - Violin Blues (1928)
TTITLE10=Blue Boys - Easy Winner (1928)
TTITLE11=Johnson, Nelson And Porkchop - G Burns Is Gonna Rise Again (1928)
TTITLE12=James Cole's String Band - I Got A Gal (1928)
TTITLE13=Walter Jacobs And Lonnie Carter - The Jazz Fiddler (1930)
TTITLE14=Tennessee Chocolate Drops - Knox Country Stomp (1930)
TTITLE15=Tommie Bradley - Adam And Eve (1930)
TTITLE16=James Cole's Washboard Four - Runnin' Wild (1930)
TTITLE17=Birmingham Jug Band - Giving It Away (1930)
TTITLE18=Mississippi Mud Steppers - Jackson Stomp (1930)
TTITLE19=King David's Jug Band - Rising Sun Blues (1930)
TTITLE20=Alabama Sheiks - Travelin' Railroad Man Blues (1931)
TTITLE21=Coleman And Harper - Old Hen Cackle (1931)
TTITLE22=Louie Bluie And Ted Bogan - Ted's Stomp (1934)
TTITLE23=Dallas Jamboree Jug Band - Dusting The Frets (1935)
TTITLE24=Nashville Washboard Band - Arkansas Traveler (1942)
EXTD=
EXTT0=
EXTT1=
EXTT2=
EXTT3=
EXTT4=
EXTT5=
EXTT6=
EXTT7=
EXTT8=
EXTT9=
EXTT10=
EXTT11=
EXTT12=
EXTT13=
EXTT14=
EXTT15=
EXTT16=
EXTT17=
EXTT18=
EXTT19=
EXTT20=
EXTT21=
EXTT22=
EXTT23=
EXTT24=
PLAYORDER=
